<svg version="1.1" id="Layer_1" xmlns="http://www.w3.org/2000/svg" xmlns:xlink="http://www.w3.org/1999/xlink" x="0px" y="0px"
	 width="100%" viewBox="0 0 782 224" enable-background="new 0 0 782 224" xml:space="preserve">
<path fill="#FFFFFE" opacity="1.000000" stroke="none" 
	d="
M557.000000,225.000000 
	C371.333344,225.000000 186.166718,225.000000 1.000050,225.000000 
	C1.000033,150.333359 1.000033,75.666725 1.000017,1.000070 
	C261.666595,1.000046 522.333191,1.000046 782.999878,1.000023 
	C782.999878,75.666595 782.999878,150.333191 782.999939,224.999893 
	C707.833313,225.000000 632.666687,225.000000 557.000000,225.000000 
M71.692749,118.748680 
	C78.449989,117.078339 85.223961,115.471329 91.952919,113.693893 
	C93.672768,113.239586 95.250168,112.245941 96.893013,111.500092 
	C96.692802,111.231491 96.492599,110.962883 96.292389,110.694275 
	C87.686211,110.694275 79.080025,110.694275 70.355003,110.694275 
	C73.958000,99.875450 77.459648,89.023369 81.304810,78.294411 
	C81.727409,77.115265 84.035164,76.253189 85.613907,75.907188 
	C93.718307,74.131020 102.045441,73.146042 109.944351,70.736122 
	C115.261307,69.113953 119.996506,65.584969 124.991966,62.909042 
	C124.808273,62.546646 124.624580,62.184250 124.440887,61.821857 
	C111.493561,63.228180 98.546234,64.634506 85.440742,66.058014 
	C84.958344,65.154991 84.738304,64.266548 84.173363,63.772484 
	C82.271736,62.109470 80.409584,59.819427 78.197792,59.351891 
	C77.175819,59.135860 75.486023,62.685318 73.898445,64.334442 
	C72.762657,65.514259 71.424980,66.867050 69.942711,67.262047 
	C67.569023,67.894600 64.860695,67.373619 62.556942,68.135674 
	C60.533257,68.805084 58.870708,70.566216 57.048653,71.845169 
	C58.619644,73.507256 59.915649,75.716438 61.836720,76.682022 
	C63.876110,77.707069 66.508659,77.552002 69.710396,78.038010 
	C65.039322,89.760712 60.793308,100.727257 56.210907,111.551399 
	C55.588783,113.020927 53.347134,113.887955 51.738148,114.834763 
	C49.880955,115.927628 47.893803,116.799637 45.963085,117.767555 
	C47.639442,119.294922 49.305298,120.834122 51.000549,122.340218 
	C51.363331,122.662498 51.832722,122.864777 52.283638,123.141113 
	C49.985741,129.088440 47.260567,134.512344 45.837765,140.258713 
	C44.251770,146.664169 39.110809,151.442261 38.669090,158.350754 
	C38.319965,163.811127 39.890835,166.906708 45.502636,169.172089 
	C48.144001,170.238342 50.074993,169.962433 51.154686,167.196152 
	C52.598068,163.498062 54.002789,159.779785 55.262959,156.016235 
	C58.944077,145.022369 62.545189,134.001724 66.842293,123.056839 
	C68.520355,123.236626 70.198418,123.416412 71.876480,123.596191 
	C71.570000,122.061653 71.263527,120.527107 71.692749,118.748680 
M514.575256,120.070213 
	C515.100342,115.950188 515.954834,111.839073 516.066589,107.707863 
	C516.204529,102.611069 511.480743,96.972832 506.257263,95.027000 
	C500.887115,93.026520 497.229156,96.092239 494.870880,99.885628 
	C490.995422,106.119545 486.747589,111.564896 479.955444,114.852531 
	C478.147064,115.727829 476.873291,117.844376 475.536011,119.534943 
	C463.673950,134.530640 451.871246,149.573380 439.971527,164.539017 
	C439.292725,165.392746 437.919617,165.694412 435.486603,166.988785 
	C436.273590,162.007706 436.336884,158.312881 437.469330,154.981506 
	C444.153320,135.318787 451.013214,115.714287 458.080139,96.186554 
	C458.615204,94.708023 461.113892,93.300369 462.877869,93.032471 
	C467.261139,92.366768 471.773438,92.580070 476.177979,92.008965 
	C477.685760,91.813469 479.027130,90.334900 480.444550,89.442528 
	C480.227478,88.995514 480.010437,88.548492 479.793365,88.101471 
	C474.073547,88.101471 468.353699,88.101471 461.937653,88.101471 
	C463.106781,85.830826 463.885254,84.027351 464.911102,82.377686 
	C469.029358,75.754982 473.279083,69.213730 477.370514,62.574753 
	C479.881805,58.499817 478.846466,56.594669 474.123077,55.997856 
	C468.925507,55.341125 464.945160,57.173885 462.382599,61.741364 
	C458.003937,69.545876 453.878754,77.498863 449.275665,85.166489 
	C448.230042,86.908173 445.762787,88.608719 443.783173,88.828911 
	C437.177734,89.563583 430.486115,89.484802 423.850037,90.004738 
	C421.554474,90.184586 419.324646,91.203880 417.064789,91.839737 
	C417.149231,92.441933 417.233673,93.044128 417.318085,93.646324 
	C426.457642,93.646324 435.597168,93.646324 444.607025,93.646324 
	C444.772827,94.579994 444.957306,94.945511 444.866394,95.219765 
	C444.396423,96.637833 443.855438,98.032341 443.340271,99.435432 
	C436.302673,118.602203 428.407806,137.525452 425.705078,157.973984 
	C425.217529,161.662674 425.061707,165.748215 426.140594,169.219116 
	C428.560333,177.003494 436.247711,178.414398 441.685638,172.446838 
	C443.926636,169.987579 446.008667,167.372406 448.031982,164.727905 
	C454.470001,156.313431 460.846344,147.851776 467.430328,139.165833 
	C468.046478,141.139526 468.445587,142.867035 469.113403,144.483536 
	C473.164429,154.289597 483.449921,157.884842 491.764679,151.522385 
	C497.595886,147.060303 503.066528,141.618866 507.181946,135.581284 
	C510.556671,130.630310 514.064148,128.308273 520.042969,129.036194 
	C520.042969,129.036194 520.345154,129.335007 520.292969,130.087662 
	C518.860474,135.704346 517.042908,141.258301 516.114624,146.957123 
	C515.339966,151.713165 516.287903,156.307297 521.265930,158.918320 
	C526.283691,161.550171 529.882996,158.597122 533.444275,155.829132 
	C536.898560,153.144287 540.177307,150.233582 543.908997,147.107147 
	C543.908997,151.301941 543.848450,154.786407 543.923096,158.267990 
	C544.037537,163.609894 545.705078,168.478546 550.955994,170.478821 
	C556.134521,172.451584 559.447266,168.388855 562.201843,164.919098 
	C566.958252,158.927917 571.208130,152.537140 575.767517,146.385895 
	C578.133423,143.193985 580.707031,140.156021 583.676758,136.434494 
	C584.143738,138.930923 584.317505,140.251205 584.641968,141.533386 
	C587.731873,153.746155 599.136292,158.426102 609.139954,150.997513 
	C614.248657,147.203842 619.185486,142.540802 622.566406,137.230621 
	C626.247131,131.449585 630.467102,128.289001 637.171570,128.079529 
	C638.454895,128.039398 639.865723,127.620247 640.950012,126.945595 
	C641.997253,126.294029 642.698669,125.086578 643.552002,124.123322 
	C643.321167,123.700584 643.090393,123.277840 642.859619,122.855103 
	C638.615234,123.503716 634.370789,124.152321 629.824768,124.847031 
	C630.888672,119.739136 632.025269,115.230461 632.731750,110.655357 
	C633.661133,104.636642 630.482056,99.233856 624.561157,95.923378 
	C620.777710,93.808014 616.568726,93.488792 614.160889,97.048828 
	C608.315796,105.691208 600.523682,112.205673 592.671204,118.751305 
	C592.421814,118.959221 592.263855,119.276093 592.060547,119.540054 
	C581.704834,132.984177 571.365295,146.440826 560.967224,159.852112 
	C559.935181,161.183258 558.545959,162.237473 557.017944,163.714722 
	C553.619934,158.341766 555.491516,153.429428 555.883545,148.603806 
	C556.804138,137.270828 559.877747,127.116760 567.748108,118.154770 
	C575.055664,109.833633 581.139343,100.348862 587.054199,90.931938 
	C589.891296,86.415100 592.018250,81.012817 592.819580,75.760223 
	C594.004272,67.994934 587.848450,63.242786 580.203674,65.412865 
	C577.595093,66.153343 574.551758,67.566856 573.066284,69.644623 
	C568.661438,75.805557 564.290039,82.149330 561.093750,88.977783 
	C556.401550,99.002274 552.738708,109.508583 548.520813,120.102028 
	C546.863037,118.597206 545.332031,117.112755 543.702515,115.745682 
	C538.337585,111.244614 534.363220,111.357719 529.240906,116.226448 
	C527.799927,117.596062 526.707336,119.339401 525.233337,120.664909 
	C523.954712,121.814713 522.362549,122.615929 520.932434,122.794334 
	C520.018921,118.538109 517.660461,118.967316 514.575256,120.070213 
M374.064636,142.064667 
	C374.064636,142.064667 373.944641,141.952759 373.950409,141.208481 
	C376.582214,135.838531 379.285706,130.502167 381.823364,125.088097 
	C383.876984,120.706673 381.511322,116.670387 376.700348,117.047745 
	C374.427124,117.226044 371.598083,118.816544 370.241882,120.663651 
	C365.319641,127.367584 360.907959,134.446869 356.315613,141.392426 
	C353.418488,145.774017 350.365356,149.982178 344.603516,151.943604 
	C344.957397,147.483383 345.344086,142.958511 347.315155,139.283417 
	C350.903046,132.593674 355.480682,126.439499 359.552612,120.003204 
	C363.135834,114.339386 367.548950,110.369171 374.882721,110.910706 
	C378.636383,111.187866 380.430328,108.428413 377.988464,105.767754 
	C376.017517,103.620270 372.277161,101.531578 369.665436,101.893967 
	C365.453827,102.478325 360.651733,104.187477 357.656830,107.050865 
	C351.220612,113.204407 346.065369,120.676590 339.840485,127.078819 
	C334.378571,132.696350 328.172791,137.590668 322.295532,142.804428 
	C321.778595,142.386292 321.261658,141.968170 320.744720,141.550034 
	C322.028137,133.231949 323.259857,124.919029 329.567047,118.305603 
	C330.927582,116.878975 332.134460,115.200417 333.009644,113.438049 
	C334.877716,109.676178 334.108398,106.070824 330.850006,103.595741 
	C327.567139,101.102058 324.659576,103.283577 322.628265,105.777374 
	C317.375916,112.225563 312.393585,118.894814 307.353241,125.513702 
	C306.036316,127.243019 304.901398,129.110901 303.682892,130.915161 
	C302.961090,121.990593 305.788025,114.605469 310.834106,107.888565 
	C311.813019,106.585487 312.620941,103.677757 311.941162,102.925011 
	C310.688599,101.538048 308.222290,100.507347 306.359833,100.645905 
	C304.878784,100.756088 303.119629,102.575790 302.219910,104.077507 
	C298.917603,109.589241 299.664032,117.163795 293.461700,121.300301 
	C293.064697,121.565071 293.578064,123.094971 293.550140,124.032837 
	C293.482544,126.302261 294.190979,129.193253 293.069061,130.714569 
	C290.298370,134.471634 286.808075,137.747711 283.311279,140.887833 
	C282.322052,141.776184 280.313507,141.529480 278.772461,141.803345 
	C278.562958,140.385513 277.795715,138.756561 278.238861,137.585785 
	C280.345367,132.020691 282.892517,126.623062 285.027527,121.067711 
	C285.611298,119.548645 286.083252,116.938583 285.282959,116.114342 
	C281.517639,112.236435 275.472137,113.436546 273.431702,118.403419 
	C271.987152,121.919746 271.233582,125.715912 270.085449,129.360016 
	C269.650146,130.741608 269.266510,132.304260 268.355652,133.342560 
	C264.513000,137.722900 260.539185,141.993790 256.476227,146.171341 
	C255.453705,147.222687 253.923141,147.779922 252.626053,148.564240 
	C252.160950,148.285538 251.695831,148.006836 251.230713,147.728149 
	C252.527176,141.678711 253.345993,135.473129 255.257828,129.624863 
	C257.077454,124.058678 260.086426,118.886848 262.472412,113.497353 
	C263.342987,111.530922 264.729950,109.313812 264.441772,107.431473 
	C264.055939,104.911339 262.755463,101.162628 260.967346,100.561852 
	C258.569916,99.756363 254.281525,100.479202 252.630920,102.248909 
	C244.812622,110.631409 237.608292,119.587219 230.206863,128.357040 
	C229.264038,129.474213 228.448273,130.698624 226.855545,132.837814 
	C228.206131,119.882278 232.853027,109.692139 240.698242,101.916451 
	C253.931076,88.800949 265.521179,74.527969 272.250977,56.898472 
	C275.384766,48.689068 278.751617,40.468201 277.405945,31.300997 
	C276.932129,28.072994 275.836212,24.863287 272.305878,24.968588 
	C268.561493,25.080273 263.339508,25.338745 261.394470,27.700451 
	C251.707718,39.462242 243.255249,52.018875 236.446747,65.901352 
	C227.868652,83.391975 221.258530,101.325050 217.292252,120.320679 
	C216.751144,122.912209 216.771469,126.075455 215.255386,127.931190 
	C208.240219,136.518112 200.905212,144.858505 193.354721,152.980362 
	C191.914612,154.529449 188.985764,154.694565 186.743774,155.498199 
	C186.064529,153.197769 185.300262,150.917496 184.747711,148.587021 
	C184.525055,147.647964 184.743927,146.597717 184.799408,145.600174 
	C185.516632,132.707550 190.592300,121.066086 195.389374,109.374809 
	C196.119019,107.596504 198.020737,106.299110 199.380325,104.779274 
	C200.008911,105.018875 200.637482,105.258469 201.266052,105.498070 
	C200.296509,110.457420 199.326950,115.416763 198.301361,120.662766 
	C202.487946,121.395470 205.683411,119.782646 206.218948,115.874542 
	C206.758850,111.934631 206.585587,107.542572 205.355911,103.798164 
	C203.539001,98.265724 198.390869,96.591263 193.746719,100.182686 
	C189.656464,103.345772 186.188599,107.569054 183.227722,111.863220 
	C180.434341,115.914482 179.282318,121.141998 176.325012,125.027641 
	C166.152313,138.393753 155.525146,151.414810 144.992874,164.504364 
	C144.303329,165.361343 142.956009,165.689072 140.624832,166.973816 
	C141.220032,162.541199 141.148712,159.334518 142.114624,156.478653 
	C148.980530,136.178360 155.995148,115.927139 163.213333,95.750038 
	C163.688278,94.422409 166.153702,93.247276 167.831970,93.018425 
	C172.230560,92.418663 176.731491,92.580276 181.136719,92.012375 
	C182.655365,91.816589 184.011780,90.362350 185.442307,89.482986 
	C185.230423,89.025421 185.018524,88.567856 184.806641,88.110291 
	C179.094742,88.110291 173.382858,88.110291 166.937057,88.110291 
	C168.128128,85.795181 168.902115,84.000114 169.922501,82.358185 
	C174.126694,75.593124 178.350739,68.838905 182.683929,62.156212 
	C184.443024,59.443336 184.240234,57.533443 181.060013,56.344860 
	C176.402542,54.604172 170.409378,56.484386 167.966736,60.767658 
	C163.286774,68.974236 158.937973,77.372864 154.118210,85.493866 
	C153.157394,87.112770 150.799561,88.598442 148.919937,88.836807 
	C144.485519,89.399193 139.925690,88.909325 135.464264,89.339600 
	C130.975998,89.772461 126.545395,90.803337 122.089523,91.572166 
	C122.150162,92.249680 122.210800,92.927200 122.271439,93.604713 
	C131.407104,93.604713 140.542786,93.604713 150.500992,93.604713 
	C144.984589,107.704483 142.050400,122.004440 131.618011,132.911209 
	C128.648529,136.015732 126.676613,140.082153 123.673553,143.144974 
	C119.622208,147.276932 115.276321,151.233414 110.561203,154.563431 
	C107.128197,156.987976 104.752373,155.418655 104.906067,151.217224 
	C105.032799,147.753067 106.081512,144.328827 106.300369,140.860321 
	C106.593071,136.221603 108.673615,133.875320 113.123192,131.951416 
	C120.044624,128.958740 125.802605,123.949425 129.323029,116.976562 
	C133.045273,109.603920 129.563370,103.615898 121.326477,102.907715 
	C114.523277,102.322807 110.102226,106.115585 106.177795,110.955498 
	C97.042473,122.221924 95.083092,135.476303 94.753418,149.446411 
	C94.615265,155.300980 98.037140,157.809830 101.902054,160.309891 
	C105.718735,162.778748 109.980217,163.039444 113.494934,159.854050 
	C117.408249,156.307419 120.956413,152.340851 124.503876,148.412888 
	C127.429871,145.173065 130.123032,141.722946 132.919357,138.366013 
	C133.421204,138.608017 133.923050,138.850037 134.424896,139.092041 
	C133.436798,143.838257 132.102997,148.544907 131.554062,153.341385 
	C130.959427,158.537308 129.973022,164.090469 131.167862,168.998383 
	C133.145432,177.121429 141.302124,178.474197 146.876755,172.242310 
	C148.985107,169.885361 150.987656,167.423462 152.904465,164.907364 
	C159.514221,156.231049 166.064880,147.509705 172.953964,138.387177 
	C172.953964,142.805725 172.714722,146.744995 173.013397,150.643066 
	C173.403091,155.729065 174.635376,160.912048 179.595291,163.311584 
	C184.202271,165.540344 188.681000,163.350906 192.700363,160.715469 
	C193.949799,159.896240 195.221939,159.038727 196.257111,157.977692 
	C202.116638,151.971741 207.907349,145.898651 213.834946,139.730362 
	C213.973083,141.992126 213.659637,144.420868 214.392853,146.476212 
	C214.980865,148.124512 216.624557,149.931763 218.213013,150.487686 
	C219.173218,150.823730 221.501801,149.234329 222.227127,147.951279 
	C229.815750,134.527679 240.248764,123.286835 249.915649,111.460342 
	C250.650116,110.561790 251.691513,109.914093 252.590225,109.149788 
	C252.149033,112.735199 250.636536,115.624908 249.486282,118.652252 
	C246.139893,127.459671 242.373398,136.166367 239.877426,145.217484 
	C238.191193,151.332306 243.342407,158.260193 249.220032,159.970551 
	C252.851959,161.027420 259.593140,157.309250 261.907501,153.103653 
	C264.266602,148.816772 266.750000,144.598282 268.520966,141.500793 
	C273.333221,144.449341 277.955414,149.567978 281.964752,149.126083 
	C286.404236,148.636795 290.283234,143.062164 294.588348,139.553726 
	C300.031219,143.252335 300.458679,143.043518 304.560455,136.647827 
	C307.790771,131.610962 311.374664,126.800896 314.801514,121.890106 
	C314.780304,127.938828 313.774261,133.289612 313.185150,138.685928 
	C312.580139,144.227325 316.236877,147.183197 320.601501,149.397797 
	C324.731415,151.493332 327.594604,148.981781 330.242310,146.335129 
	C331.606140,144.971848 332.682892,143.321335 333.889343,141.800613 
	C334.991241,143.438980 335.052063,144.365967 335.117859,145.292587 
	C335.522217,150.987152 337.615082,156.255234 343.140289,158.017365 
	C348.395355,159.693344 351.294891,154.796402 354.289337,151.288925 
	C354.935791,150.531677 355.450348,149.662964 356.043060,148.858444 
	C359.139557,144.655518 362.241730,140.456757 365.776367,135.667953 
	C365.377289,148.161301 359.011749,156.302353 350.755035,163.624313 
	C342.105316,171.294785 334.615662,180.072769 329.946869,190.774704 
	C326.913239,197.728531 330.580261,206.384689 337.175171,209.477890 
	C342.899475,212.162750 348.073914,209.714340 352.470459,202.210358 
	C353.311432,200.774994 354.270172,199.363754 354.832642,197.817047 
	C359.882904,183.929459 364.752625,169.975052 369.939514,156.139297 
	C370.995087,153.323578 372.666504,150.345490 374.902802,148.436691 
	C382.752319,141.736664 391.035919,135.547684 398.995636,128.972122 
	C400.511261,127.720055 401.302429,125.591057 402.427826,123.866669 
	C401.899170,123.451088 401.370514,123.035507 400.841858,122.619919 
	C399.382172,123.583672 397.872833,124.480614 396.471069,125.522301 
	C389.026917,131.054153 381.609772,136.622360 374.064636,142.064667 
M643.509583,116.356354 
	C644.750061,123.199677 645.592651,130.148697 647.372131,136.848877 
	C648.543335,141.258942 647.857422,143.522781 643.909058,146.248672 
	C638.130798,150.237930 632.715820,155.046570 628.110168,160.344193 
	C624.708069,164.257462 626.605652,170.749008 630.764709,173.923401 
	C636.887390,178.596542 648.194275,177.891708 653.906128,172.623016 
	C661.068848,166.016052 661.679749,157.540497 660.745361,148.712418 
	C660.397461,145.425476 661.327942,143.667389 664.303772,142.023270 
	C669.816711,138.977417 675.050659,135.400085 680.243408,131.816071 
	C681.968079,130.625687 683.404663,128.865326 684.576843,127.102203 
	C685.043701,126.399887 684.798523,124.655823 684.202209,124.001480 
	C683.754578,123.510315 682.087952,123.709190 681.214111,124.125572 
	C679.890320,124.756340 678.846802,125.947128 677.574158,126.718285 
	C671.562988,130.360641 665.514404,133.941193 658.273987,138.263138 
	C658.252930,127.313499 651.848572,118.498230 656.804077,108.662567 
	C657.388306,107.502914 656.563782,104.524773 655.515320,103.926483 
	C654.145691,103.144920 651.556091,103.281860 650.098999,104.102516 
	C645.785278,106.532036 643.357544,110.397743 643.509583,116.356354 
M279.951141,107.387077 
	C281.573303,107.337624 284.041290,107.948250 284.679260,107.130737 
	C288.598846,102.108002 292.331970,96.895645 295.549500,91.407730 
	C296.165466,90.357132 294.699280,87.130974 293.310486,86.110390 
	C291.706451,84.931641 289.073059,84.628349 286.990570,84.863823 
	C286.052765,84.969872 284.470886,87.508171 284.718231,88.592171 
	C285.939178,93.942795 283.003632,97.709534 280.614624,101.835335 
	C279.825378,103.198311 279.932220,105.080147 279.951141,107.387077 
M714.163635,151.535385 
	C709.864807,152.785278 707.973755,155.797974 708.981812,159.996918 
	C709.416931,161.809723 711.060181,163.819611 712.708679,164.686844 
	C713.853149,165.288895 716.180176,164.468689 717.549622,163.604034 
	C719.181213,162.573807 720.911316,161.038879 721.595398,159.322662 
	C722.630798,156.725128 722.799622,153.782181 723.336670,150.986008 
	C720.506897,151.025757 717.677185,151.065506 714.163635,151.535385 
M750.945190,157.150864 
	C750.959656,154.985611 751.830750,151.793198 750.774231,150.912018 
	C749.416992,149.779999 746.052856,149.681107 744.377625,150.615356 
	C741.656494,152.132843 738.900146,154.495132 737.537842,157.196381 
	C736.735779,158.786743 737.952209,162.418732 739.471558,163.813354 
	C740.571533,164.823029 744.032654,164.307663 745.765747,163.305252 
	C747.762207,162.150497 749.015930,159.711624 750.945190,157.150864 
M694.591125,157.834778 
	C694.792419,155.507019 694.993713,153.179260 695.195068,150.851517 
	C692.530273,150.881638 689.583191,150.212326 687.281372,151.141571 
	C685.046692,152.043701 683.093140,154.339188 681.709656,156.472534 
	C680.050964,159.030197 680.318665,161.797150 683.041809,163.910721 
	C685.601746,165.897491 687.905945,165.603912 690.021484,163.306915 
	C691.460327,161.744675 692.804810,160.095505 694.591125,157.834778 
z"/>
<path fill="#EF8A60" opacity="1.000000" stroke="none" 
	d="
M374.183258,142.177963 
	C381.609772,136.622360 389.026917,131.054153 396.471069,125.522301 
	C397.872833,124.480614 399.382172,123.583672 400.841858,122.619919 
	C401.370514,123.035507 401.899170,123.451088 402.427826,123.866669 
	C401.302429,125.591057 400.511261,127.720055 398.995636,128.972122 
	C391.035919,135.547684 382.752319,141.736664 374.902802,148.436691 
	C372.666504,150.345490 370.995087,153.323578 369.939514,156.139297 
	C364.752625,169.975052 359.882904,183.929459 354.832642,197.817047 
	C354.270172,199.363754 353.311432,200.774994 352.470459,202.210358 
	C348.073914,209.714340 342.899475,212.162750 337.175171,209.477890 
	C330.580261,206.384689 326.913239,197.728531 329.946869,190.774704 
	C334.615662,180.072769 342.105316,171.294785 350.755035,163.624313 
	C359.011749,156.302353 365.377289,148.161301 365.776367,135.667953 
	C362.241730,140.456757 359.139557,144.655518 356.043060,148.858444 
	C355.450348,149.662964 354.935791,150.531677 354.289337,151.288925 
	C351.294891,154.796402 348.395355,159.693344 343.140289,158.017365 
	C337.615082,156.255234 335.522217,150.987152 335.117859,145.292587 
	C335.052063,144.365967 334.991241,143.438980 333.889343,141.800613 
	C332.682892,143.321335 331.606140,144.971848 330.242310,146.335129 
	C327.594604,148.981781 324.731415,151.493332 320.601501,149.397797 
	C316.236877,147.183197 312.580139,144.227325 313.185150,138.685928 
	C313.774261,133.289612 314.780304,127.938828 314.801514,121.890106 
	C311.374664,126.800896 307.790771,131.610962 304.560455,136.647827 
	C300.458679,143.043518 300.031219,143.252335 294.588348,139.553726 
	C290.283234,143.062164 286.404236,148.636795 281.964752,149.126083 
	C277.955414,149.567978 273.333221,144.449341 268.520966,141.500793 
	C266.750000,144.598282 264.266602,148.816772 261.907501,153.103653 
	C259.593140,157.309250 252.851959,161.027420 249.220032,159.970551 
	C243.342407,158.260193 238.191193,151.332306 239.877426,145.217484 
	C242.373398,136.166367 246.139893,127.459671 249.486282,118.652252 
	C250.636536,115.624908 252.149033,112.735199 252.590225,109.149788 
	C251.691513,109.914093 250.650116,110.561790 249.915649,111.460342 
	C240.248764,123.286835 229.815750,134.527679 222.227127,147.951279 
	C221.501801,149.234329 219.173218,150.823730 218.213013,150.487686 
	C216.624557,149.931763 214.980865,148.124512 214.392853,146.476212 
	C213.659637,144.420868 213.973083,141.992126 213.834946,139.730362 
	C207.907349,145.898651 202.116638,151.971741 196.257111,157.977692 
	C195.221939,159.038727 193.949799,159.896240 192.700363,160.715469 
	C188.681000,163.350906 184.202271,165.540344 179.595291,163.311584 
	C174.635376,160.912048 173.403091,155.729065 173.013397,150.643066 
	C172.714722,146.744995 172.953964,142.805725 172.953964,138.387177 
	C166.064880,147.509705 159.514221,156.231049 152.904465,164.907364 
	C150.987656,167.423462 148.985107,169.885361 146.876755,172.242310 
	C141.302124,178.474197 133.145432,177.121429 131.167862,168.998383 
	C129.973022,164.090469 130.959427,158.537308 131.554062,153.341385 
	C132.102997,148.544907 133.436798,143.838257 134.424896,139.092041 
	C133.923050,138.850037 133.421204,138.608017 132.919357,138.366013 
	C130.123032,141.722946 127.429871,145.173065 124.503876,148.412888 
	C120.956413,152.340851 117.408249,156.307419 113.494934,159.854050 
	C109.980217,163.039444 105.718735,162.778748 101.902054,160.309891 
	C98.037140,157.809830 94.615265,155.300980 94.753418,149.446411 
	C95.083092,135.476303 97.042473,122.221924 106.177795,110.955498 
	C110.102226,106.115585 114.523277,102.322807 121.326477,102.907715 
	C129.563370,103.615898 133.045273,109.603920 129.323029,116.976562 
	C125.802605,123.949425 120.044624,128.958740 113.123192,131.951416 
	C108.673615,133.875320 106.593071,136.221603 106.300369,140.860321 
	C106.081512,144.328827 105.032799,147.753067 104.906067,151.217224 
	C104.752373,155.418655 107.128197,156.987976 110.561203,154.563431 
	C115.276321,151.233414 119.622208,147.276932 123.673553,143.144974 
	C126.676613,140.082153 128.648529,136.015732 131.618011,132.911209 
	C142.050400,122.004440 144.984589,107.704483 150.500992,93.604713 
	C140.542786,93.604713 131.407104,93.604713 122.271439,93.604713 
	C122.210800,92.927200 122.150162,92.249680 122.089523,91.572166 
	C126.545395,90.803337 130.975998,89.772461 135.464264,89.339600 
	C139.925690,88.909325 144.485519,89.399193 148.919937,88.836807 
	C150.799561,88.598442 153.157394,87.112770 154.118210,85.493866 
	C158.937973,77.372864 163.286774,68.974236 167.966736,60.767658 
	C170.409378,56.484386 176.402542,54.604172 181.060013,56.344860 
	C184.240234,57.533443 184.443024,59.443336 182.683929,62.156212 
	C178.350739,68.838905 174.126694,75.593124 169.922501,82.358185 
	C168.902115,84.000114 168.128128,85.795181 166.937057,88.110291 
	C173.382858,88.110291 179.094742,88.110291 184.806641,88.110291 
	C185.018524,88.567856 185.230423,89.025421 185.442307,89.482986 
	C184.011780,90.362350 182.655365,91.816589 181.136719,92.012375 
	C176.731491,92.580276 172.230560,92.418663 167.831970,93.018425 
	C166.153702,93.247276 163.688278,94.422409 163.213333,95.750038 
	C155.995148,115.927139 148.980530,136.178360 142.114624,156.478653 
	C141.148712,159.334518 141.220032,162.541199 140.624832,166.973816 
	C142.956009,165.689072 144.303329,165.361343 144.992874,164.504364 
	C155.525146,151.414810 166.152313,138.393753 176.325012,125.027641 
	C179.282318,121.141998 180.434341,115.914482 183.227722,111.863220 
	C186.188599,107.569054 189.656464,103.345772 193.746719,100.182686 
	C198.390869,96.591263 203.539001,98.265724 205.355911,103.798164 
	C206.585587,107.542572 206.758850,111.934631 206.218948,115.874542 
	C205.683411,119.782646 202.487946,121.395470 198.301361,120.662766 
	C199.326950,115.416763 200.296509,110.457420 201.266052,105.498070 
	C200.637482,105.258469 200.008911,105.018875 199.380325,104.779274 
	C198.020737,106.299110 196.119019,107.596504 195.389374,109.374809 
	C190.592300,121.066086 185.516632,132.707550 184.799408,145.600174 
	C184.743927,146.597717 184.525055,147.647964 184.747711,148.587021 
	C185.300262,150.917496 186.064529,153.197769 186.743774,155.498199 
	C188.985764,154.694565 191.914612,154.529449 193.354721,152.980362 
	C200.905212,144.858505 208.240219,136.518112 215.255386,127.931190 
	C216.771469,126.075455 216.751144,122.912209 217.292252,120.320679 
	C221.258530,101.325050 227.868652,83.391975 236.446747,65.901352 
	C243.255249,52.018875 251.707718,39.462242 261.394470,27.700451 
	C263.339508,25.338745 268.561493,25.080273 272.305878,24.968588 
	C275.836212,24.863287 276.932129,28.072994 277.405945,31.300997 
	C278.751617,40.468201 275.384766,48.689068 272.250977,56.898472 
	C265.521179,74.527969 253.931076,88.800949 240.698242,101.916451 
	C232.853027,109.692139 228.206131,119.882278 226.855545,132.837814 
	C228.448273,130.698624 229.264038,129.474213 230.206863,128.357040 
	C237.608292,119.587219 244.812622,110.631409 252.630920,102.248909 
	C254.281525,100.479202 258.569916,99.756363 260.967346,100.561852 
	C262.755463,101.162628 264.055939,104.911339 264.441772,107.431473 
	C264.729950,109.313812 263.342987,111.530922 262.472412,113.497353 
	C260.086426,118.886848 257.077454,124.058678 255.257828,129.624863 
	C253.345993,135.473129 252.527176,141.678711 251.230713,147.728149 
	C251.695831,148.006836 252.160950,148.285538 252.626053,148.564240 
	C253.923141,147.779922 255.453705,147.222687 256.476227,146.171341 
	C260.539185,141.993790 264.513000,137.722900 268.355652,133.342560 
	C269.266510,132.304260 269.650146,130.741608 270.085449,129.360016 
	C271.233582,125.715912 271.987152,121.919746 273.431702,118.403419 
	C275.472137,113.436546 281.517639,112.236435 285.282959,116.114342 
	C286.083252,116.938583 285.611298,119.548645 285.027527,121.067711 
	C282.892517,126.623062 280.345367,132.020691 278.238861,137.585785 
	C277.795715,138.756561 278.562958,140.385513 278.772461,141.803345 
	C280.313507,141.529480 282.322052,141.776184 283.311279,140.887833 
	C286.808075,137.747711 290.298370,134.471634 293.069061,130.714569 
	C294.190979,129.193253 293.482544,126.302261 293.550140,124.032837 
	C293.578064,123.094971 293.064697,121.565071 293.461700,121.300301 
	C299.664032,117.163795 298.917603,109.589241 302.219910,104.077507 
	C303.119629,102.575790 304.878784,100.756088 306.359833,100.645905 
	C308.222290,100.507347 310.688599,101.538048 311.941162,102.925011 
	C312.620941,103.677757 311.813019,106.585487 310.834106,107.888565 
	C305.788025,114.605469 302.961090,121.990593 303.682892,130.915161 
	C304.901398,129.110901 306.036316,127.243019 307.353241,125.513702 
	C312.393585,118.894814 317.375916,112.225563 322.628265,105.777374 
	C324.659576,103.283577 327.567139,101.102058 330.850006,103.595741 
	C334.108398,106.070824 334.877716,109.676178 333.009644,113.438049 
	C332.134460,115.200417 330.927582,116.878975 329.567047,118.305603 
	C323.259857,124.919029 322.028137,133.231949 320.744720,141.550034 
	C321.261658,141.968170 321.778595,142.386292 322.295532,142.804428 
	C328.172791,137.590668 334.378571,132.696350 339.840485,127.078819 
	C346.065369,120.676590 351.220612,113.204407 357.656830,107.050865 
	C360.651733,104.187477 365.453827,102.478325 369.665436,101.893967 
	C372.277161,101.531578 376.017517,103.620270 377.988464,105.767754 
	C380.430328,108.428413 378.636383,111.187866 374.882721,110.910706 
	C367.548950,110.369171 363.135834,114.339386 359.552612,120.003204 
	C355.480682,126.439499 350.903046,132.593674 347.315155,139.283417 
	C345.344086,142.958511 344.957397,147.483383 344.603516,151.943604 
	C350.365356,149.982178 353.418488,145.774017 356.315613,141.392426 
	C360.907959,134.446869 365.319641,127.367584 370.241882,120.663651 
	C371.598083,118.816544 374.427124,117.226044 376.700348,117.047745 
	C381.511322,116.670387 383.876984,120.706673 381.823364,125.088097 
	C379.285706,130.502167 376.582214,135.838531 373.765076,141.661911 
	C373.622467,142.319046 373.665192,142.522751 373.707947,142.726456 
	C373.866364,142.543625 374.024811,142.360794 374.183258,142.177963 
M257.863861,48.375187 
	C257.003784,49.193153 255.848511,49.858047 255.331985,50.854168 
	C252.207672,56.879223 249.229355,62.979977 245.884659,69.596626 
	C245.552750,70.354446 245.220825,71.112274 244.361755,72.313286 
	C243.257019,74.880203 242.152298,77.447113 241.119904,80.795181 
	C241.556564,82.175430 242.632874,83.731262 242.311127,84.903305 
	C241.308609,88.555283 239.776718,92.061935 238.450134,95.624947 
	C249.083588,85.595406 256.838654,73.783005 263.656525,60.592152 
	C264.122437,59.421955 264.588348,58.251759 265.544037,56.585289 
	C267.822296,50.215046 270.228119,43.885582 272.286774,37.445156 
	C272.785126,35.886024 272.137543,33.960617 272.016937,32.203644 
	C271.386932,32.044693 270.756958,31.885742 270.126953,31.726791 
	C266.511292,37.534512 262.895630,43.342228 258.707397,49.047371 
	C258.515350,49.024746 258.323334,49.002125 257.863861,48.375187 
M339.182037,184.745331 
	C337.475403,189.324982 335.414978,193.819000 334.273468,198.535461 
	C333.922028,199.987488 336.080261,202.046951 337.089355,203.828278 
	C338.740387,202.875183 340.890503,202.305283 341.963226,200.908173 
	C350.303223,190.046143 353.586884,176.994049 357.972565,164.425903 
	C357.543762,164.137253 357.114960,163.848587 356.686157,163.559937 
	C350.989929,170.423752 345.293701,177.287582 339.182037,184.745331 
M121.854576,107.178009 
	C114.867493,112.257614 113.351685,120.329308 110.629196,127.914101 
	C115.020241,124.787178 119.369576,121.526360 122.091614,117.233665 
	C123.639374,114.792816 122.525780,110.664391 121.854576,107.178009 
M239.264542,83.754585 
	C238.705109,85.396896 238.145691,87.039200 237.586258,88.681511 
	C237.961288,88.815804 238.336319,88.950096 238.711334,89.084389 
	C239.509644,87.072227 240.307938,85.060059 241.106247,83.047897 
	C240.611420,83.071953 240.116592,83.096016 239.264542,83.754585 
M134.829620,137.520935 
	C134.677658,137.190826 134.525696,136.860718 134.373734,136.530609 
	C134.375000,137.007507 134.376266,137.484421 134.829620,137.520935 
M258.462646,46.891178 
	C258.564240,46.785397 258.741638,46.682690 258.746094,46.572979 
	C258.750519,46.463692 258.581360,46.347370 258.488312,46.234142 
	C258.386505,46.339767 258.284668,46.445393 258.462646,46.891178 
z"/>
<path fill="#EF8A60" opacity="1.000000" stroke="none" 
	d="
M520.908997,123.571213 
	C522.362549,122.615929 523.954712,121.814713 525.233337,120.664909 
	C526.707336,119.339401 527.799927,117.596062 529.240906,116.226448 
	C534.363220,111.357719 538.337585,111.244614 543.702515,115.745682 
	C545.332031,117.112755 546.863037,118.597206 548.520813,120.102028 
	C552.738708,109.508583 556.401550,99.002274 561.093750,88.977783 
	C564.290039,82.149330 568.661438,75.805557 573.066284,69.644623 
	C574.551758,67.566856 577.595093,66.153343 580.203674,65.412865 
	C587.848450,63.242786 594.004272,67.994934 592.819580,75.760223 
	C592.018250,81.012817 589.891296,86.415100 587.054199,90.931938 
	C581.139343,100.348862 575.055664,109.833633 567.748108,118.154770 
	C559.877747,127.116760 556.804138,137.270828 555.883545,148.603806 
	C555.491516,153.429428 553.619934,158.341766 557.017944,163.714722 
	C558.545959,162.237473 559.935181,161.183258 560.967224,159.852112 
	C571.365295,146.440826 581.704834,132.984177 592.060547,119.540054 
	C592.263855,119.276093 592.421814,118.959221 592.671204,118.751305 
	C600.523682,112.205673 608.315796,105.691208 614.160889,97.048828 
	C616.568726,93.488792 620.777710,93.808014 624.561157,95.923378 
	C630.482056,99.233856 633.661133,104.636642 632.731750,110.655357 
	C632.025269,115.230461 630.888672,119.739136 629.824768,124.847031 
	C634.370789,124.152321 638.615234,123.503716 642.859619,122.855103 
	C643.090393,123.277840 643.321167,123.700584 643.552002,124.123322 
	C642.698669,125.086578 641.997253,126.294029 640.950012,126.945595 
	C639.865723,127.620247 638.454895,128.039398 637.171570,128.079529 
	C630.467102,128.289001 626.247131,131.449585 622.566406,137.230621 
	C619.185486,142.540802 614.248657,147.203842 609.139954,150.997513 
	C599.136292,158.426102 587.731873,153.746155 584.641968,141.533386 
	C584.317505,140.251205 584.143738,138.930923 583.676758,136.434494 
	C580.707031,140.156021 578.133423,143.193985 575.767517,146.385895 
	C571.208130,152.537140 566.958252,158.927917 562.201843,164.919098 
	C559.447266,168.388855 556.134521,172.451584 550.955994,170.478821 
	C545.705078,168.478546 544.037537,163.609894 543.923096,158.267990 
	C543.848450,154.786407 543.908997,151.301941 543.908997,147.107147 
	C540.177307,150.233582 536.898560,153.144287 533.444275,155.829132 
	C529.882996,158.597122 526.283691,161.550171 521.265930,158.918320 
	C516.287903,156.307297 515.339966,151.713165 516.114624,146.957123 
	C517.042908,141.258301 518.860474,135.704346 520.463257,129.559601 
	C520.337219,128.932236 520.040833,128.832962 519.744507,128.733673 
	C514.064148,128.308273 510.556671,130.630310 507.181946,135.581284 
	C503.066528,141.618866 497.595886,147.060303 491.764679,151.522385 
	C483.449921,157.884842 473.164429,154.289597 469.113403,144.483536 
	C468.445587,142.867035 468.046478,141.139526 467.430328,139.165833 
	C460.846344,147.851776 454.470001,156.313431 448.031982,164.727905 
	C446.008667,167.372406 443.926636,169.987579 441.685638,172.446838 
	C436.247711,178.414398 428.560333,177.003494 426.140594,169.219116 
	C425.061707,165.748215 425.217529,161.662674 425.705078,157.973984 
	C428.407806,137.525452 436.302673,118.602203 443.340271,99.435432 
	C443.855438,98.032341 444.396423,96.637833 444.866394,95.219765 
	C444.957306,94.945511 444.772827,94.579994 444.607025,93.646324 
	C435.597168,93.646324 426.457642,93.646324 417.318085,93.646324 
	C417.233673,93.044128 417.149231,92.441933 417.064789,91.839737 
	C419.324646,91.203880 421.554474,90.184586 423.850037,90.004738 
	C430.486115,89.484802 437.177734,89.563583 443.783173,88.828911 
	C445.762787,88.608719 448.230042,86.908173 449.275665,85.166489 
	C453.878754,77.498863 458.003937,69.545876 462.382599,61.741364 
	C464.945160,57.173885 468.925507,55.341125 474.123077,55.997856 
	C478.846466,56.594669 479.881805,58.499817 477.370514,62.574753 
	C473.279083,69.213730 469.029358,75.754982 464.911102,82.377686 
	C463.885254,84.027351 463.106781,85.830826 461.937653,88.101471 
	C468.353699,88.101471 474.073547,88.101471 479.793365,88.101471 
	C480.010437,88.548492 480.227478,88.995514 480.444550,89.442528 
	C479.027130,90.334900 477.685760,91.813469 476.177979,92.008965 
	C471.773438,92.580070 467.261139,92.366768 462.877869,93.032471 
	C461.113892,93.300369 458.615204,94.708023 458.080139,96.186554 
	C451.013214,115.714287 444.153320,135.318787 437.469330,154.981506 
	C436.336884,158.312881 436.273590,162.007706 435.486603,166.988785 
	C437.919617,165.694412 439.292725,165.392746 439.971527,164.539017 
	C451.871246,149.573380 463.673950,134.530640 475.536011,119.534943 
	C476.873291,117.844376 478.147064,115.727829 479.955444,114.852531 
	C486.747589,111.564896 490.995422,106.119545 494.870880,99.885628 
	C497.229156,96.092239 500.887115,93.026520 506.257263,95.027000 
	C511.480743,96.972832 516.204529,102.611069 516.066589,107.707863 
	C515.954834,111.839073 515.100342,115.950188 514.727295,120.510727 
	C514.879272,120.951241 514.939392,120.950356 514.604004,121.038422 
	C513.896179,122.287491 513.523743,123.448494 512.963074,125.196426 
	C514.530884,124.758286 515.417969,124.510391 516.651245,124.250809 
	C518.301331,124.016487 519.605164,123.793846 520.908997,123.571213 
M610.135803,121.641335 
	C611.451172,123.022682 612.766541,124.404030 614.900940,125.942879 
	C617.310303,126.052094 620.252930,127.032646 621.067566,123.580811 
	C622.578796,117.177628 623.944641,110.730011 625.019958,104.242706 
	C625.232605,102.959709 624.034546,100.360939 623.187561,100.224243 
	C621.720886,99.987526 619.600708,100.778122 618.489014,101.879295 
	C613.231934,107.086578 610.943542,113.700333 610.135803,121.641335 
M541.272034,119.417183 
	C540.490784,119.622101 539.381531,119.564827 538.976929,120.070885 
	C531.747192,129.113281 527.830566,139.595520 526.436035,150.956482 
	C526.072144,153.920685 528.486389,154.646896 530.780762,152.775162 
	C535.026978,149.311142 539.489319,145.990646 543.158142,141.968628 
	C548.717712,135.873932 547.823975,124.969299 541.272034,119.417183 
M479.120453,138.844177 
	C478.857391,139.802307 478.330811,140.775436 478.384216,141.715591 
	C478.509247,143.915863 478.166168,147.012970 479.413940,148.033264 
	C480.649109,149.043228 483.880188,148.548080 485.754456,147.677200 
	C493.499725,144.078400 497.748444,137.331345 501.028534,130.787766 
	C495.947449,127.578377 491.500580,124.769592 486.494141,121.607346 
	C484.210266,126.900108 481.797913,132.490662 479.120453,138.844177 
M605.980713,145.606491 
	C611.329773,141.335663 615.196045,136.016159 617.560059,130.804398 
	C612.403015,127.531372 607.972778,124.719612 602.971130,121.545189 
	C600.768555,126.709518 597.921753,132.328751 596.031616,138.253174 
	C595.060486,141.297058 595.795898,144.885422 595.760132,148.227737 
	C598.968689,147.503479 602.177307,146.779205 605.980713,145.606491 
M577.500305,97.989433 
	C579.604309,94.412918 582.106812,91.003845 583.699707,87.212593 
	C585.277100,83.458092 586.130005,79.353897 586.876770,75.324516 
	C587.089478,74.176880 586.122803,72.104782 585.146118,71.656471 
	C584.300293,71.268211 582.359436,72.276627 581.464539,73.207787 
	C579.991333,74.740601 578.641418,76.569572 577.816040,78.517921 
	C573.096924,89.657944 568.508972,100.854286 563.973999,112.070930 
	C563.054932,114.344048 562.554077,116.786285 561.860413,119.150566 
	C565.056152,116.046432 567.528320,112.749619 569.880737,109.369400 
	C572.349365,105.822113 574.703186,102.194901 577.500305,97.989433 
M494.531128,115.344215 
	C494.325439,117.475075 493.435486,119.861824 494.109375,121.663757 
	C494.763763,123.413582 496.851868,125.372505 498.625549,125.747070 
	C500.368958,126.115234 503.875397,125.035027 504.245758,123.851280 
	C506.205688,117.586906 507.599335,111.121246 508.751678,104.647476 
	C508.999573,103.254791 507.800446,100.729240 506.615631,100.207893 
	C505.476257,99.706551 502.765045,100.645699 502.009216,101.788422 
	C499.317902,105.857376 497.165527,110.282791 494.531128,115.344215 
z"/>
<path fill="#EF8960" opacity="1.000000" stroke="none" 
	d="
M66.177658,122.991577 
	C62.545189,134.001724 58.944077,145.022369 55.262959,156.016235 
	C54.002789,159.779785 52.598068,163.498062 51.154686,167.196152 
	C50.074993,169.962433 48.144001,170.238342 45.502636,169.172089 
	C39.890835,166.906708 38.319965,163.811127 38.669090,158.350754 
	C39.110809,151.442261 44.251770,146.664169 45.837765,140.258713 
	C47.260567,134.512344 49.985741,129.088440 52.283638,123.141113 
	C51.832722,122.864777 51.363331,122.662498 51.000549,122.340218 
	C49.305298,120.834122 47.639442,119.294922 45.963085,117.767555 
	C47.893803,116.799637 49.880955,115.927628 51.738148,114.834763 
	C53.347134,113.887955 55.588783,113.020927 56.210907,111.551399 
	C60.793308,100.727257 65.039322,89.760712 69.710396,78.038010 
	C66.508659,77.552002 63.876110,77.707069 61.836720,76.682022 
	C59.915649,75.716438 58.619644,73.507256 57.048653,71.845169 
	C58.870708,70.566216 60.533257,68.805084 62.556942,68.135674 
	C64.860695,67.373619 67.569023,67.894600 69.942711,67.262047 
	C71.424980,66.867050 72.762657,65.514259 73.898445,64.334442 
	C75.486023,62.685318 77.175819,59.135860 78.197792,59.351891 
	C80.409584,59.819427 82.271736,62.109470 84.173363,63.772484 
	C84.738304,64.266548 84.958344,65.154991 85.440742,66.058014 
	C98.546234,64.634506 111.493561,63.228180 124.440887,61.821857 
	C124.624580,62.184250 124.808273,62.546646 124.991966,62.909042 
	C119.996506,65.584969 115.261307,69.113953 109.944351,70.736122 
	C102.045441,73.146042 93.718307,74.131020 85.613907,75.907188 
	C84.035164,76.253189 81.727409,77.115265 81.304810,78.294411 
	C77.459648,89.023369 73.958000,99.875450 70.355003,110.694275 
	C79.080025,110.694275 87.686211,110.694275 96.292389,110.694275 
	C96.492599,110.962883 96.692802,111.231491 96.893013,111.500092 
	C95.250168,112.245941 93.672768,113.239586 91.952919,113.693893 
	C85.223961,115.471329 78.449989,117.078339 70.957069,118.841110 
	C68.873474,120.286209 67.525566,121.638893 66.177658,122.991577 
z"/>
<path fill="#EF8960" opacity="1.000000" stroke="none" 
	d="
M643.471069,115.953918 
	C643.357544,110.397743 645.785278,106.532036 650.098999,104.102516 
	C651.556091,103.281860 654.145691,103.144920 655.515320,103.926483 
	C656.563782,104.524773 657.388306,107.502914 656.804077,108.662567 
	C651.848572,118.498230 658.252930,127.313499 658.273987,138.263138 
	C665.514404,133.941193 671.562988,130.360641 677.574158,126.718285 
	C678.846802,125.947128 679.890320,124.756340 681.214111,124.125572 
	C682.087952,123.709190 683.754578,123.510315 684.202209,124.001480 
	C684.798523,124.655823 685.043701,126.399887 684.576843,127.102203 
	C683.404663,128.865326 681.968079,130.625687 680.243408,131.816071 
	C675.050659,135.400085 669.816711,138.977417 664.303772,142.023270 
	C661.327942,143.667389 660.397461,145.425476 660.745361,148.712418 
	C661.679749,157.540497 661.068848,166.016052 653.906128,172.623016 
	C648.194275,177.891708 636.887390,178.596542 630.764709,173.923401 
	C626.605652,170.749008 624.708069,164.257462 628.110168,160.344193 
	C632.715820,155.046570 638.130798,150.237930 643.909058,146.248672 
	C647.857422,143.522781 648.543335,141.258942 647.372131,136.848877 
	C645.592651,130.148697 644.750061,123.199677 643.471069,115.953918 
M641.503601,154.961197 
	C638.594910,158.044067 635.312744,160.862411 632.887085,164.287399 
	C630.652344,167.442657 632.433777,169.082809 636.060852,169.112015 
	C644.843811,169.182724 651.108887,159.617432 648.240356,150.485367 
	C646.193665,151.834793 644.139160,153.189362 641.503601,154.961197 
z"/>
<path fill="#F08E67" opacity="1.000000" stroke="none" 
	d="
M279.790253,107.055908 
	C279.932220,105.080147 279.825378,103.198311 280.614624,101.835335 
	C283.003632,97.709534 285.939178,93.942795 284.718231,88.592171 
	C284.470886,87.508171 286.052765,84.969872 286.990570,84.863823 
	C289.073059,84.628349 291.706451,84.931641 293.310486,86.110390 
	C294.699280,87.130974 296.165466,90.357132 295.549500,91.407730 
	C292.331970,96.895645 288.598846,102.108002 284.679260,107.130737 
	C284.041290,107.948250 281.573303,107.337624 279.790253,107.055908 
M289.277405,100.451729 
	C289.504242,100.472366 289.731079,100.493011 289.957916,100.513649 
	C289.854492,100.393486 289.751099,100.273323 289.277405,100.451729 
z"/>
<path fill="#EF8A60" opacity="1.000000" stroke="none" 
	d="
M714.505493,151.320328 
	C717.677185,151.065506 720.506897,151.025757 723.336670,150.986008 
	C722.799622,153.782181 722.630798,156.725128 721.595398,159.322662 
	C720.911316,161.038879 719.181213,162.573807 717.549622,163.604034 
	C716.180176,164.468689 713.853149,165.288895 712.708679,164.686844 
	C711.060181,163.819611 709.416931,161.809723 708.981812,159.996918 
	C707.973755,155.797974 709.864807,152.785278 714.505493,151.320328 
z"/>
<path fill="#EF8960" opacity="1.000000" stroke="none" 
	d="
M750.768677,157.490662 
	C749.015930,159.711624 747.762207,162.150497 745.765747,163.305252 
	C744.032654,164.307663 740.571533,164.823029 739.471558,163.813354 
	C737.952209,162.418732 736.735779,158.786743 737.537842,157.196381 
	C738.900146,154.495132 741.656494,152.132843 744.377625,150.615356 
	C746.052856,149.681107 749.416992,149.779999 750.774231,150.912018 
	C751.830750,151.793198 750.959656,154.985611 750.768677,157.490662 
z"/>
<path fill="#EF8A60" opacity="1.000000" stroke="none" 
	d="
M694.391296,158.159973 
	C692.804810,160.095505 691.460327,161.744675 690.021484,163.306915 
	C687.905945,165.603912 685.601746,165.897491 683.041809,163.910721 
	C680.318665,161.797150 680.050964,159.030197 681.709656,156.472534 
	C683.093140,154.339188 685.046692,152.043701 687.281372,151.141571 
	C689.583191,150.212326 692.530273,150.881638 695.195068,150.851517 
	C694.993713,153.179260 694.792419,155.507019 694.391296,158.159973 
z"/>
<path fill="#D8D7DB" opacity="1.000000" stroke="none" 
	d="
M66.509979,123.024208 
	C67.525566,121.638893 68.873474,120.286209 70.589218,118.963051 
	C71.263527,120.527107 71.570000,122.061653 71.876480,123.596191 
	C70.198418,123.416412 68.520355,123.236626 66.509979,123.024208 
z"/>
<path fill="#D8D7DB" opacity="1.000000" stroke="none" 
	d="
M520.920715,123.182770 
	C519.605164,123.793846 518.301331,124.016487 516.461914,123.936302 
	C515.597290,122.739098 515.268372,121.844727 514.939392,120.950356 
	C514.939392,120.950356 514.879272,120.951241 514.856689,120.932419 
	C517.660461,118.967316 520.018921,118.538109 520.920715,123.182770 
z"/>
<path fill="#FEFAF9" opacity="1.000000" stroke="none" 
	d="
M263.161163,60.978218 
	C256.838654,73.783005 249.083588,85.595406 238.450134,95.624947 
	C239.776718,92.061935 241.308609,88.555283 242.311127,84.903305 
	C242.632874,83.731262 241.556564,82.175430 241.469025,80.391144 
	C246.184311,78.829163 247.347397,75.754761 244.888916,71.870094 
	C245.220825,71.112274 245.552750,70.354446 246.255676,69.319092 
	C246.626709,69.041550 247.050568,69.005455 247.166656,69.310806 
	C247.869232,69.076637 248.455734,68.537117 249.018311,67.996384 
	C248.994400,67.995178 249.007919,68.041145 249.330902,67.953674 
	C249.782944,67.241463 249.912018,66.616722 250.016968,65.993713 
	C249.992859,65.995438 250.009888,66.040710 250.337341,65.959763 
	C250.790192,65.249725 250.915588,64.620644 251.016846,63.993507 
	C250.992706,63.995453 251.009949,64.040741 251.341705,63.965508 
	C251.795990,63.257462 251.918518,62.624653 252.016968,61.993732 
	C251.992889,61.995621 252.010468,62.040615 252.345871,61.970310 
	C252.801239,61.264141 252.921219,60.628281 253.017197,59.994133 
	C252.993210,59.995850 253.011139,60.040462 253.350983,59.975769 
	C253.807709,59.272079 253.924606,58.633083 254.017792,57.995247 
	C253.994080,57.996414 254.013000,58.039959 254.357452,57.981537 
	C254.815170,57.280487 254.928467,56.637859 255.018219,55.995987 
	C254.994675,55.996738 255.014191,56.039604 255.362854,55.985901 
	C255.821716,55.287205 255.931931,54.642208 256.018860,53.997246 
	C255.995605,53.997276 256.016296,54.038933 256.369568,53.991203 
	C256.829468,53.295773 256.936035,52.648071 257.019775,51.999115 
	C256.996948,51.997856 257.019409,52.037743 257.376801,51.994835 
	C257.837128,51.302528 257.940094,50.653137 258.019714,50.002251 
	C257.996368,50.000755 258.022339,50.039612 258.323975,50.107361 
	C258.843750,49.833385 259.061859,49.491665 259.279968,49.149948 
	C262.895630,43.342228 266.511292,37.534512 270.126953,31.726791 
	C270.756958,31.885742 271.386932,32.044693 272.016937,32.203644 
	C272.137543,33.960617 272.785126,35.886024 272.286774,37.445156 
	C270.228119,43.885582 267.822296,50.215046 264.998596,56.686867 
	C262.792297,55.110657 260.780365,54.528233 259.914093,57.063026 
	C259.627930,57.900410 262.002930,59.647224 263.161163,60.978218 
z"/>
<path fill="#FEFBF9" opacity="1.000000" stroke="none" 
	d="
M339.389771,184.448364 
	C345.293701,177.287582 350.989929,170.423752 356.686157,163.559937 
	C357.114960,163.848587 357.543762,164.137253 357.972565,164.425903 
	C353.586884,176.994049 350.303223,190.046143 341.963226,200.908173 
	C340.890503,202.305283 338.740387,202.875183 337.089355,203.828278 
	C336.080261,202.046951 333.922028,199.987488 334.273468,198.535461 
	C335.414978,193.819000 337.475403,189.324982 339.389771,184.448364 
z"/>
<path fill="#FEF8F5" opacity="1.000000" stroke="none" 
	d="
M122.232635,107.236969 
	C122.525780,110.664391 123.639374,114.792816 122.091614,117.233665 
	C119.369576,121.526360 115.020241,124.787178 110.629196,127.914101 
	C113.351685,120.329308 114.867493,112.257614 122.232635,107.236969 
z"/>
<path fill="#FCE5DB" opacity="1.000000" stroke="none" 
	d="
M247.050568,69.005455 
	C247.050568,69.005455 246.626709,69.041550 246.414474,69.048492 
	C249.229355,62.979977 252.207672,56.879223 255.331985,50.854168 
	C255.848511,49.858047 257.003784,49.193153 257.908386,48.936077 
	C257.976074,49.677853 257.999207,49.858734 258.022339,50.039612 
	C258.022339,50.039612 257.996368,50.000755 257.724915,50.121777 
	C257.308777,50.841114 257.164093,51.439430 257.019409,52.037743 
	C257.019409,52.037743 256.996948,51.997856 256.726562,52.121590 
	C256.309540,52.843193 256.162933,53.441063 256.016296,54.038933 
	C256.016296,54.038933 255.995605,53.997276 255.727203,54.122826 
	C255.310608,54.845455 255.162399,55.442528 255.014191,56.039604 
	C255.014191,56.039604 254.994675,55.996738 254.726334,56.121925 
	C254.309677,56.844727 254.161346,57.442345 254.013000,58.039963 
	C254.013000,58.039959 253.994080,57.996414 253.725281,58.120632 
	C253.308044,58.843388 253.159592,59.441929 253.011139,60.040466 
	C253.011139,60.040462 252.993210,59.995850 252.723389,60.118504 
	C252.305862,60.840977 252.158157,61.440796 252.010468,62.040615 
	C252.010468,62.040615 251.992889,61.995621 251.721313,62.115852 
	C251.303146,62.837639 251.156555,63.439190 251.009949,64.040741 
	C251.009949,64.040741 250.992706,63.995453 250.719086,64.112732 
	C250.300262,64.833588 250.155075,65.437149 250.009888,66.040710 
	C250.009888,66.040710 249.992859,65.995438 249.715881,66.107376 
	C249.295227,66.826599 249.151566,67.433868 249.007919,68.041145 
	C249.007919,68.041145 248.994400,67.995178 248.734741,68.045387 
	C248.000229,68.398880 247.525406,68.702164 247.050568,69.005455 
z"/>
<path fill="#FCE5DB" opacity="1.000000" stroke="none" 
	d="
M244.625336,72.091690 
	C247.347397,75.754761 246.184311,78.829163 241.432861,80.000565 
	C242.152298,77.447113 243.257019,74.880203 244.625336,72.091690 
z"/>
<path fill="#D8D7DB" opacity="1.000000" stroke="none" 
	d="
M263.408844,60.785187 
	C262.002930,59.647224 259.627930,57.900410 259.914093,57.063026 
	C260.780365,54.528233 262.792297,55.110657 264.753723,56.935005 
	C264.588348,58.251759 264.122437,59.421955 263.408844,60.785187 
z"/>
<path fill="#FCE5DB" opacity="1.000000" stroke="none" 
	d="
M239.443146,83.437332 
	C240.116592,83.096016 240.611420,83.071953 241.106247,83.047897 
	C240.307938,85.060059 239.509644,87.072227 238.711334,89.084389 
	C238.336319,88.950096 237.961288,88.815804 237.586258,88.681511 
	C238.145691,87.039200 238.705109,85.396896 239.443146,83.437332 
z"/>
<path fill="#FFFFFE" opacity="1.000000" stroke="none" 
	d="
M134.603577,137.741119 
	C134.376266,137.484421 134.375000,137.007507 134.373734,136.530609 
	C134.525696,136.860718 134.677658,137.190826 134.603577,137.741119 
z"/>
<path fill="#F19773" opacity="1.000000" stroke="none" 
	d="
M258.323975,50.107361 
	C257.999207,49.858734 257.976074,49.677853 258.042114,49.238235 
	C258.323334,49.002125 258.515350,49.024746 258.993683,49.098660 
	C259.061859,49.491665 258.843750,49.833385 258.323975,50.107361 
z"/>
<path fill="#FFFFFE" opacity="1.000000" stroke="none" 
	d="
M374.123962,142.121307 
	C374.024811,142.360794 373.866364,142.543625 373.707947,142.726456 
	C373.665192,142.522751 373.622467,142.319046 373.762207,142.034058 
	C373.944641,141.952759 374.064636,142.064667 374.123962,142.121307 
z"/>
<path fill="#FCE5DB" opacity="1.000000" stroke="none" 
	d="
M258.322754,46.721096 
	C258.284668,46.445393 258.386505,46.339767 258.488312,46.234138 
	C258.581360,46.347370 258.750519,46.463692 258.746094,46.572979 
	C258.741638,46.682690 258.564240,46.785397 258.322754,46.721096 
z"/>
<path fill="#FEFBF9" opacity="1.000000" stroke="none" 
	d="
M541.592468,119.567963 
	C547.823975,124.969299 548.717712,135.873932 543.158142,141.968628 
	C539.489319,145.990646 535.026978,149.311142 530.780762,152.775162 
	C528.486389,154.646896 526.072144,153.920685 526.436035,150.956482 
	C527.830566,139.595520 531.747192,129.113281 538.976929,120.070885 
	C539.381531,119.564827 540.490784,119.622101 541.592468,119.567963 
z"/>
<path fill="#FEFBFA" opacity="1.000000" stroke="none" 
	d="
M479.252991,138.462708 
	C481.797913,132.490662 484.210266,126.900108 486.494141,121.607346 
	C491.500580,124.769592 495.947449,127.578377 501.028534,130.787766 
	C497.748444,137.331345 493.499725,144.078400 485.754456,147.677200 
	C483.880188,148.548080 480.649109,149.043228 479.413940,148.033264 
	C478.166168,147.012970 478.509247,143.915863 478.384216,141.715591 
	C478.330811,140.775436 478.857391,139.802307 479.252991,138.462708 
z"/>
<path fill="#FFFCFB" opacity="1.000000" stroke="none" 
	d="
M605.683289,145.830719 
	C602.177307,146.779205 598.968689,147.503479 595.760132,148.227722 
	C595.795898,144.885422 595.060486,141.297058 596.031616,138.253174 
	C597.921753,132.328751 600.768555,126.709518 602.971130,121.545189 
	C607.972778,124.719612 612.403015,127.531372 617.560059,130.804398 
	C615.196045,136.016159 611.329773,141.335663 605.683289,145.830719 
z"/>
<path fill="#FDF9F8" opacity="1.000000" stroke="none" 
	d="
M577.303711,98.296021 
	C574.703186,102.194901 572.349365,105.822113 569.880737,109.369400 
	C567.528320,112.749619 565.056152,116.046432 561.860413,119.150566 
	C562.554077,116.786285 563.054932,114.344048 563.973999,112.070930 
	C568.508972,100.854286 573.096924,89.657944 577.816040,78.517921 
	C578.641418,76.569572 579.991333,74.740601 581.464539,73.207787 
	C582.359436,72.276627 584.300293,71.268211 585.146118,71.656471 
	C586.122803,72.104782 587.089478,74.176880 586.876770,75.324516 
	C586.130005,79.353897 585.277100,83.458092 583.699707,87.212593 
	C582.106812,91.003845 579.604309,94.412918 577.303711,98.296021 
z"/>
<path fill="#FFFBFA" opacity="1.000000" stroke="none" 
	d="
M494.670135,114.958740 
	C497.165527,110.282791 499.317902,105.857376 502.009216,101.788422 
	C502.765045,100.645699 505.476257,99.706551 506.615631,100.207893 
	C507.800446,100.729240 508.999573,103.254791 508.751678,104.647476 
	C507.599335,111.121246 506.205688,117.586906 504.245758,123.851280 
	C503.875397,125.035027 500.368958,126.115234 498.625549,125.747070 
	C496.851868,125.372505 494.763763,123.413582 494.109375,121.663757 
	C493.435486,119.861824 494.325439,117.475075 494.670135,114.958740 
z"/>
<path fill="#FFFCFC" opacity="1.000000" stroke="none" 
	d="
M610.284668,120.954376 
	C610.943542,113.700333 613.231934,107.086578 618.489014,101.879295 
	C619.600708,100.778122 621.720886,99.987526 623.187561,100.224243 
	C624.034546,100.360939 625.232605,102.959709 625.019958,104.242706 
	C623.944641,110.730011 622.578796,117.177628 621.067566,123.580811 
	C620.252930,127.032646 617.310303,126.052094 614.638306,125.586220 
	C614.874146,123.619194 615.372559,122.008820 615.871033,120.398453 
	C614.332214,120.531830 612.792969,120.661179 611.254822,120.801796 
	C610.929504,120.831535 610.607971,120.902443 610.284668,120.954376 
z"/>
<path fill="#DFD9DB" opacity="1.000000" stroke="none" 
	d="
M610.210205,121.297852 
	C610.607971,120.902443 610.929504,120.831535 611.254822,120.801796 
	C612.792969,120.661179 614.332214,120.531830 615.871033,120.398453 
	C615.372559,122.008820 614.874146,123.619194 614.228760,125.507469 
	C612.766541,124.404030 611.451172,123.022682 610.210205,121.297852 
z"/>
<path fill="#FFFFFE" opacity="1.000000" stroke="none" 
	d="
M514.604004,121.038422 
	C515.268372,121.844727 515.597290,122.739098 516.115601,123.947983 
	C515.417969,124.510391 514.530884,124.758286 512.963074,125.196426 
	C513.523743,123.448494 513.896179,122.287491 514.604004,121.038422 
z"/>
<path fill="#FFFFFE" opacity="1.000000" stroke="none" 
	d="
M519.893738,128.884933 
	C520.040833,128.832962 520.337219,128.932236 520.489380,129.183258 
	C520.345154,129.335007 520.042969,129.036194 519.893738,128.884933 
z"/>
<path fill="#FAF7F6" opacity="1.000000" stroke="none" 
	d="
M641.794189,154.752563 
	C644.139160,153.189362 646.193665,151.834793 648.240356,150.485367 
	C651.108887,159.617432 644.843811,169.182724 636.060852,169.112015 
	C632.433777,169.082809 630.652344,167.442657 632.887085,164.287399 
	C635.312744,160.862411 638.594910,158.044067 641.794189,154.752563 
z"/>
<path fill="#FFFFFE" opacity="1.000000" stroke="none" 
	d="
M289.462524,100.302444 
	C289.751099,100.273323 289.854492,100.393486 289.957916,100.513649 
	C289.731079,100.493011 289.504242,100.472366 289.462524,100.302444 
z"/>
<path fill="#F19773" opacity="1.000000" stroke="none" 
	d="
M247.166656,69.310806 
	C247.525406,68.702164 248.000229,68.398880 248.758652,68.046593 
	C248.455734,68.537117 247.869232,69.076637 247.166656,69.310806 
z"/>
<path fill="#F19773" opacity="1.000000" stroke="none" 
	d="
M250.337341,65.959763 
	C250.155075,65.437149 250.300262,64.833588 250.743225,64.110794 
	C250.915588,64.620644 250.790192,65.249725 250.337341,65.959763 
z"/>
<path fill="#F19773" opacity="1.000000" stroke="none" 
	d="
M257.376831,51.994835 
	C257.164093,51.439430 257.308777,50.841114 257.748230,50.123272 
	C257.940094,50.653137 257.837128,51.302528 257.376831,51.994835 
z"/>
<path fill="#F19773" opacity="1.000000" stroke="none" 
	d="
M256.369568,53.991203 
	C256.162933,53.441063 256.309540,52.843193 256.749390,52.122849 
	C256.936035,52.648071 256.829468,53.295773 256.369568,53.991203 
z"/>
<path fill="#F19773" opacity="1.000000" stroke="none" 
	d="
M255.362854,55.985901 
	C255.162399,55.442528 255.310608,54.845455 255.750458,54.122795 
	C255.931931,54.642208 255.821716,55.287205 255.362854,55.985901 
z"/>
<path fill="#F19773" opacity="1.000000" stroke="none" 
	d="
M254.357452,57.981541 
	C254.161346,57.442345 254.309677,56.844727 254.749878,56.121170 
	C254.928467,56.637859 254.815170,57.280487 254.357452,57.981541 
z"/>
<path fill="#F19773" opacity="1.000000" stroke="none" 
	d="
M253.350983,59.975773 
	C253.159592,59.441929 253.308044,58.843388 253.748993,58.119469 
	C253.924606,58.633083 253.807709,59.272079 253.350983,59.975773 
z"/>
<path fill="#F19773" opacity="1.000000" stroke="none" 
	d="
M252.345871,61.970310 
	C252.158157,61.440796 252.305862,60.840977 252.747375,60.116787 
	C252.921219,60.628281 252.801239,61.264141 252.345871,61.970310 
z"/>
<path fill="#F19773" opacity="1.000000" stroke="none" 
	d="
M249.330902,67.953674 
	C249.151566,67.433868 249.295227,66.826599 249.739990,66.105652 
	C249.912018,66.616722 249.782944,67.241463 249.330902,67.953674 
z"/>
<path fill="#F19773" opacity="1.000000" stroke="none" 
	d="
M251.341705,63.965508 
	C251.156555,63.439190 251.303146,62.837639 251.745392,62.113968 
	C251.918518,62.624653 251.795990,63.257462 251.341705,63.965508 
z"/>
</svg>